# xmcd
#
# Track frame offsets:
#	183
#	13000
#	25788
#	41065
#	55275
#	68075
#	82193
#	95835
#	110108
#	122565
#	137073
#	151335
#	162780
#	178510
#	193773
#	208095
#	225023
#	242725
#
# Disc length: 3392 seconds
#
# Revision: 1
# Processed by: cddbd v1.5.2PL0 Copyright (c) Steve Scherf et al.
# Submitted via: audiograbber 1.83.01
#
DISCID=f30d3e12
DTITLE=Gerry King - Boots and Jeans
DYEAR=1900
DGENRE=Country
TTITLE0=Boots and Jeans
TTITLE1=Heartwreck
TTITLE2=Everytime I Reach For Her
TTITLE3=Stoned To The Bone With The Blues
TTITLE4=One More Memory For The Road
TTITLE5=How Can I Tell My Heart
TTITLE6=What I Want
TTITLE7=Written All Over My Face
TTITLE8=Heavy Duty Heart
TTITLE9=Tryin' To Find The Feelin'
TTITLE10=Midnight Dancer
TTITLE11=Are You Thinkin' Bout Me
TTITLE12=Don't Come Knockin'
TTITLE13=It Serves You Right
TTITLE14=My Heart Keeps Walkin' Right Back
TTITLE15=Vow You Were Saving For Me, The
TTITLE16=Cowboy Thing To Do, The
TTITLE17=For Loving You
EXTD=
EXTT0=
EXTT1=
EXTT2=
EXTT3=
EXTT4=
EXTT5=
EXTT6=
EXTT7=
EXTT8=
EXTT9=
EXTT10=
EXTT11=
EXTT12=
EXTT13=
EXTT14=
EXTT15=
EXTT16=
EXTT17=
PLAYORDER=
